<svg height="27.192" viewBox="0 0 27.193 27.192" width="27.193" xmlns="http://www.w3.org/2000/svg"><path d="m13.6 3.966a9.411 9.411 0 0 0 -4.836 1.292 9.608 9.608 0 0 0 -3.506 3.505 9.4 9.4 0 0 0 -1.292 4.837 9.423 9.423 0 0 0 1.292 4.833 9.593 9.593 0 0 0 3.506 3.506 9.416 9.416 0 0 0 4.836 1.288 9.416 9.416 0 0 0 4.833-1.292 9.593 9.593 0 0 0 3.506-3.506 9.423 9.423 0 0 0 1.288-4.829 9.4 9.4 0 0 0 -1.292-4.833 9.608 9.608 0 0 0 -3.506-3.506 9.411 9.411 0 0 0 -4.829-1.295zm13.6 9.631a13.3 13.3 0 0 1 -1.823 6.825 13.533 13.533 0 0 1 -4.948 4.948 13.3 13.3 0 0 1 -6.829 1.822 13.3 13.3 0 0 1 -6.825-1.823 13.533 13.533 0 0 1 -4.948-4.948 13.3 13.3 0 0 1 -1.827-6.821 13.3 13.3 0 0 1 1.823-6.828 13.533 13.533 0 0 1 4.949-4.949 13.3 13.3 0 0 1 6.828-1.823 13.3 13.3 0 0 1 6.825 1.823 13.533 13.533 0 0 1 4.948 4.948 13.3 13.3 0 0 1 1.82 6.829z" fill="#418557"/></svg>