<svg height="17.5" viewBox="0 0 12.283 17.5" width="12.283" xmlns="http://www.w3.org/2000/svg" xmlns:xlink="http://www.w3.org/1999/xlink"><clipPath id="a"><path d="m0 0h12.283v17.5h-12.283z"/></clipPath><g clip-path="url(#a)"><path d="m6.121.25a5.969 5.969 0 0 1 4.354 1.787 5.87 5.87 0 0 1 1.808 4.334 8.374 8.374 0 0 1 -.637 2.937 17.05 17.05 0 0 1 -1.54 3.081q-.9 1.417-1.808 2.67t-1.52 1.992l-.657.7q-.246-.246-.657-.739t-1.458-1.912q-1.048-1.417-1.869-2.752a18.773 18.773 0 0 1 -1.48-3.019 8.3 8.3 0 0 1 -.657-2.958 5.9 5.9 0 0 1 1.787-4.334 5.9 5.9 0 0 1 4.334-1.787zm0 8.3a2.168 2.168 0 0 0 1.561-.637 2.134 2.134 0 0 0 0-3.081 2.164 2.164 0 0 0 -1.561-.636 2.174 2.174 0 0 0 -2.177 2.175 2.174 2.174 0 0 0 2.177 2.177z" transform="translate(0 -.25)"/></g></svg>