<svg xmlns="http://www.w3.org/2000/svg" width="200.43" height="22.318" viewBox="0 0 200.43 22.318">
  <path id="パス_9" data-name="パス 9" d="M6.72-17.82H.21v-3.42h16.8v3.42H10.5V0H6.72ZM20.7-21.24h3.78V0H20.7Zm24.21,4.98a6.33,6.33,0,0,0-2.265-1.68,6.115,6.115,0,0,0-2.2-.42,7.361,7.361,0,0,0-2.985.585,6.83,6.83,0,0,0-2.3,1.62,7.358,7.358,0,0,0-1.485,2.415,8.283,8.283,0,0,0-.525,2.97,9.132,9.132,0,0,0,.525,3.15A7.4,7.4,0,0,0,35.16-5.13a6.91,6.91,0,0,0,2.3,1.65,7.2,7.2,0,0,0,2.985.6,5.484,5.484,0,0,0,2.5-.615A6.837,6.837,0,0,0,45.21-5.46l3.12,2.22A8.5,8.5,0,0,1,44.82-.36a10.94,10.94,0,0,1-4.41.9A12.414,12.414,0,0,1,35.9-.255a10.3,10.3,0,0,1-3.54-2.25A10.337,10.337,0,0,1,30.03-6a11.791,11.791,0,0,1-.84-4.53,12.3,12.3,0,0,1,.84-4.635,10.4,10.4,0,0,1,2.325-3.555,10.191,10.191,0,0,1,3.54-2.265,12.414,12.414,0,0,1,4.515-.8,10.353,10.353,0,0,1,4.005.765A9.337,9.337,0,0,1,47.85-18.42Zm7.17-4.98h3.78v9h.18l8.79-9h5.1L60-11.43,70.59,0H65.28L56.07-10.44h-.21V0H52.08Zm21.75,0H87.9v3.42H77.61v5.22h9.75v3.42H77.61v5.76H88.44V0H73.83Zm23.88,3.42H91.2v-3.42H108v3.42h-6.51V0H97.71Zm24.15-3.42H129a14.308,14.308,0,0,1,2.955.3,7.278,7.278,0,0,1,2.5,1.005,5.157,5.157,0,0,1,1.725,1.89,6.123,6.123,0,0,1,.645,2.955,6.6,6.6,0,0,1-.69,3.24,4.938,4.938,0,0,1-1.86,1.905,7.771,7.771,0,0,1-2.715.915,21,21,0,0,1-3.225.24h-2.7V0h-3.78Zm6.06,9.21q.81,0,1.68-.06a5.16,5.16,0,0,0,1.6-.36,2.848,2.848,0,0,0,1.2-.9,2.685,2.685,0,0,0,.465-1.68,2.649,2.649,0,0,0-.42-1.575,2.782,2.782,0,0,0-1.08-.9,4.556,4.556,0,0,0-1.47-.4,14.136,14.136,0,0,0-1.56-.09h-2.7v5.97Zm18.12-9.21h3.27L158.46,0h-4.32l-1.98-4.86h-9.21L141.03,0H136.8Zm4.8,13.14-3.27-8.64L144.24-8.1Zm11.19-13.14h7.38a15.035,15.035,0,0,1,2.955.285,7.567,7.567,0,0,1,2.535.975,5.1,5.1,0,0,1,1.77,1.86,5.99,5.99,0,0,1,.66,2.97,5.915,5.915,0,0,1-1.275,3.87,5.469,5.469,0,0,1-3.645,1.89L178.05,0h-4.56l-4.92-9h-2.76V0h-3.78Zm6.72,9q.81,0,1.62-.075a4.975,4.975,0,0,0,1.485-.36,2.534,2.534,0,0,0,1.095-.87,2.765,2.765,0,0,0,.42-1.635,2.609,2.609,0,0,0-.39-1.5,2.424,2.424,0,0,0-1.02-.855,4.7,4.7,0,0,0-1.4-.375A12.711,12.711,0,0,0,169.08-18h-3.27v5.76Zm13.38-9h3.78v9h.18l8.79-9h5.1l-9.93,9.81L200.64,0h-5.31l-9.21-10.44h-.21V0h-3.78Z" transform="translate(-0.21 21.779)" fill="#fff"/>
</svg>
