<svg xmlns="http://www.w3.org/2000/svg" width="64" height="47.997" viewBox="0 0 64 47.997">
  <path id="ticket" d="M64.008,32V44a4.054,4.054,0,0,1-4,4h-36V46a2,2,0,0,0-4,0v2h-16A3.843,3.843,0,0,1,1.2,46.81,3.843,3.843,0,0,1,.012,44V32a7.712,7.712,0,0,0,5.657-2.344A7.7,7.7,0,0,0,8.012,24a7.718,7.718,0,0,0-2.344-5.657A7.7,7.7,0,0,0,.008,16V4A3.843,3.843,0,0,1,1.195,1.189,3.843,3.843,0,0,1,4.007,0h16V2A1.918,1.918,0,0,0,20.6,3.408a1.96,1.96,0,0,0,2.812,0A1.926,1.926,0,0,0,24.006,2V0h36a3.843,3.843,0,0,1,2.812,1.187A3.843,3.843,0,0,1,64,4V16a8,8,0,0,0-8,8,8,8,0,0,0,8,8Zm-40-22a2,2,0,0,0-4,0v4a2,2,0,0,0,4,0Zm0,12a2,2,0,0,0-4,0v4a2,2,0,0,0,4,0Zm0,12a2,2,0,0,0-4,0v4a2,2,0,0,0,4,0Z" transform="translate(-0.008)" fill="#2346b3"/>
</svg>
